<svg width="24" height="21" viewBox="0 0 24 21" fill="none" xmlns="http://www.w3.org/2000/svg">
<path d="M13.875 0H22.875C23.4963 0 24 0.503672 24 1.125V8.625C24 9.24633 23.4963 9.75 22.875 9.75H13.875C13.2537 9.75 12.75 9.24633 12.75 8.625V1.125C12.75 0.503672 13.2537 0 13.875 0ZM10.125 0H1.125C0.503672 0 0 0.503672 0 1.125V8.625C0 9.24633 0.503672 9.75 1.125 9.75H10.125C10.7463 9.75 11.25 9.24633 11.25 8.625V1.125C11.25 0.503672 10.7463 0 10.125 0ZM0 12.375V19.875C0 20.4963 0.503672 21 1.125 21H10.125C10.7463 21 11.25 20.4963 11.25 19.875V12.375C11.25 11.7537 10.7463 11.25 10.125 11.25H1.125C0.503672 11.25 0 11.7537 0 12.375ZM13.875 21H22.875C23.4963 21 24 20.4963 24 19.875V12.375C24 11.7537 23.4963 11.25 22.875 11.25H13.875C13.2537 11.25 12.75 11.7537 12.75 12.375V19.875C12.75 20.4963 13.2537 21 13.875 21Z" fill="white"/>
</svg>
