<svg width="60" height="62" viewBox="0 0 60 62" fill="none" xmlns="http://www.w3.org/2000/svg">
<path d="M35.1724 45.8966H8.27587C7.17842 45.8966 6.12592 45.4481 5.34991 44.65C4.5739 43.8518 4.13794 42.7692 4.13794 41.6404V20.3596C4.13794 19.2308 4.5739 18.1482 5.34991 17.3501C6.12592 16.5519 7.17842 16.1035 8.27587 16.1035H35.1724C36.2699 16.1035 37.3224 16.5519 38.0984 17.3501C38.8744 18.1482 39.3104 19.2308 39.3104 20.3596V41.6404C39.3104 42.7692 38.8744 43.8518 38.0984 44.65C37.3224 45.4481 36.2699 45.8966 35.1724 45.8966Z" fill="white"/>
<path d="M43.4483 24.6158V37.3842L52.6448 43.6919C52.9566 43.9058 53.3189 44.0286 53.6932 44.0472C54.0675 44.0658 54.4397 43.9795 54.7701 43.7975C55.1004 43.6155 55.3765 43.3446 55.5688 43.0138C55.7611 42.683 55.8625 42.3046 55.8621 41.9192V20.0808C55.8621 19.6955 55.7605 19.3175 55.568 18.987C55.3755 18.6565 55.0994 18.3859 54.7692 18.2041C54.4389 18.0224 54.0669 17.9362 53.6927 17.9549C53.3186 17.9736 52.9564 18.0964 52.6448 18.3103L43.4483 24.6158Z" fill="white"/>
</svg>
