<svg width="24" height="19" viewBox="0 0 24 19" fill="none" xmlns="http://www.w3.org/2000/svg">
<path d="M23.6678 10.3091L15.6674 18.3094C14.9531 19.0238 13.715 18.5237 13.715 17.4999V12.9282H7.23845C6.60509 12.9282 6.09554 12.4187 6.09554 11.7853V7.21366C6.09554 6.58029 6.60509 6.07075 7.23845 6.07075H13.715V1.49909C13.715 0.479992 14.9484 -0.0247948 15.6674 0.689526L23.6678 8.68992C24.1107 9.13756 24.1107 9.86141 23.6678 10.3091ZM9.14331 18.0713V16.1665C9.14331 15.8522 8.88616 15.595 8.57185 15.595H4.57166C3.72876 15.595 3.04777 14.914 3.04777 14.0711V4.92783C3.04777 4.08493 3.72876 3.40395 4.57166 3.40395H8.57185C8.88616 3.40395 9.14331 3.14679 9.14331 2.83249V0.927633C9.14331 0.613332 8.88616 0.356176 8.57185 0.356176H4.57166C2.04772 0.356176 0 2.4039 0 4.92783V14.0711C0 16.5951 2.04772 18.6428 4.57166 18.6428H8.57185C8.88616 18.6428 9.14331 18.3856 9.14331 18.0713Z" fill="white"/>
</svg>
