<svg width="24" height="27" viewBox="0 0 24 27" fill="none" xmlns="http://www.w3.org/2000/svg">
<path d="M23.6935 16.5125L21.5402 15.2691C21.7576 14.0964 21.7576 12.8935 21.5402 11.7208L23.6935 10.4774C23.9411 10.3359 24.0523 10.0427 23.9715 9.76976C23.4104 7.97034 22.4551 6.34278 21.2066 4.98817C21.0145 4.78093 20.7012 4.73038 20.4585 4.87191L18.3053 6.11533C17.4006 5.33693 16.3593 4.73544 15.2322 4.34118V1.85941C15.2322 1.57635 15.035 1.32868 14.757 1.26803C12.902 0.853554 11.0015 0.873772 9.23748 1.26803C8.95948 1.32868 8.76235 1.57635 8.76235 1.85941V4.34624C7.64024 4.74555 6.59901 5.34704 5.68919 6.12038L3.54101 4.87697C3.29334 4.73544 2.98501 4.78093 2.79294 4.99322C1.54447 6.34278 0.589163 7.97034 0.0281093 9.77481C-0.0578179 10.0478 0.0584365 10.3409 0.306109 10.4824L2.45934 11.7259C2.242 12.8985 2.242 14.1015 2.45934 15.2741L0.306109 16.5176C0.0584365 16.6591 -0.0527633 16.9523 0.0281093 17.2252C0.589163 19.0246 1.54447 20.6522 2.79294 22.0068C2.98501 22.214 3.29839 22.2646 3.54101 22.123L5.69425 20.8796C6.59901 21.658 7.64024 22.2595 8.76741 22.6538V25.1406C8.76741 25.4237 8.96453 25.6713 9.24253 25.732C11.0975 26.1465 12.9981 26.1262 14.7621 25.732C15.0401 25.6713 15.2372 25.4237 15.2372 25.1406V22.6538C16.3593 22.2545 17.4006 21.653 18.3104 20.8796L20.4636 22.123C20.7113 22.2646 21.0196 22.2191 21.2117 22.0068C22.4601 20.6572 23.4155 19.0297 23.9765 17.2252C24.0523 16.9472 23.9411 16.654 23.6935 16.5125ZM11.9973 17.5386C9.7682 17.5386 7.95362 15.724 7.95362 13.495C7.95362 11.2659 9.7682 9.45132 11.9973 9.45132C14.2263 9.45132 16.0409 11.2659 16.0409 13.495C16.0409 15.724 14.2263 17.5386 11.9973 17.5386Z" fill="white"/>
</svg>
