<svg width="28" height="23" viewBox="0 0 28 23" fill="none" xmlns="http://www.w3.org/2000/svg">
<path d="M20.9999 14.3C21.8306 14.3 22.6426 14.0537 23.3333 13.5922C24.024 13.1307 24.5623 12.4747 24.8802 11.7073C25.1981 10.9398 25.2813 10.0953 25.1192 9.28063C24.9572 8.46591 24.5572 7.71754 23.9698 7.13017C23.3824 6.54279 22.634 6.14278 21.8193 5.98072C21.0046 5.81866 20.1601 5.90184 19.3927 6.21972C18.6252 6.53761 17.9693 7.07593 17.5078 7.76662C17.0463 8.4573 16.8 9.26933 16.8 10.1C16.8 11.2139 17.2425 12.2822 18.0301 13.0698C18.8178 13.8575 19.886 14.3 20.9999 14.3ZM23.0999 15.7C22.9951 15.6996 22.8909 15.7157 22.7911 15.7477C21.6309 16.1508 20.3686 16.1508 19.2084 15.7477C19.1087 15.7157 19.0046 15.6996 18.8999 15.7C18.2542 15.7 17.6148 15.8276 17.0185 16.0756C16.4223 16.3235 15.8809 16.6869 15.4255 17.1447C14.9701 17.6026 14.6098 18.146 14.3651 18.7436C14.1205 19.3413 13.9964 19.9813 14 20.6271C14.0061 21.776 14.9506 22.7 16.1 22.7H25.8999C27.0492 22.7 27.9938 21.776 27.9999 20.6271C28.0035 19.9813 27.8794 19.3413 27.6348 18.7436C27.3901 18.146 27.0297 17.6026 26.5744 17.1447C26.119 16.6869 25.5776 16.3235 24.9814 16.0756C24.3851 15.8276 23.7457 15.7 23.0999 15.7ZM14.4335 16.1572C14.7294 15.8662 15.0531 15.6049 15.4 15.3771V5.90002C15.4 5.52872 15.2525 5.17262 14.9899 4.91007C14.7274 4.64752 14.3713 4.50002 14 4.50002H12.6V1.70003C12.6 1.32873 12.4525 0.972633 12.1899 0.710083C11.9274 0.447533 11.5713 0.300034 11.2 0.300034L4.19999 0.300034C3.82869 0.300034 3.47259 0.447533 3.21004 0.710083C2.94749 0.972633 2.79999 1.32873 2.79999 1.70003V4.50002H1.4C1.02869 4.50002 0.6726 4.64752 0.410049 4.91007C0.147499 5.17262 0 5.52872 0 5.90002L0 22C0 22.1856 0.0737496 22.3637 0.205025 22.4949C0.3363 22.6262 0.514347 22.7 0.699998 22.7H13.3135C12.8575 22.1074 12.607 21.3823 12.6 20.6345C12.5932 19.8039 12.7518 18.9802 13.0666 18.2115C13.3814 17.4428 13.8461 16.7445 14.4335 16.1572ZM6.29998 17.975C6.29998 18.1142 6.24467 18.2478 6.14621 18.3462C6.04776 18.4447 5.91422 18.5 5.77498 18.5H4.02499C3.88575 18.5 3.75222 18.4447 3.65376 18.3462C3.5553 18.2478 3.49999 18.1142 3.49999 17.975V16.225C3.49999 16.0858 3.5553 15.9522 3.65376 15.8538C3.75222 15.7553 3.88575 15.7 4.02499 15.7H5.77498C5.91422 15.7 6.04776 15.7553 6.14621 15.8538C6.24467 15.9522 6.29998 16.0858 6.29998 16.225V17.975ZM6.29998 12.375C6.29998 12.5142 6.24467 12.6478 6.14621 12.7462C6.04776 12.8447 5.91422 12.9 5.77498 12.9H4.02499C3.88575 12.9 3.75222 12.8447 3.65376 12.7462C3.5553 12.6478 3.49999 12.5142 3.49999 12.375V10.625C3.49999 10.4858 3.5553 10.3522 3.65376 10.2538C3.75222 10.1553 3.88575 10.1 4.02499 10.1H5.77498C5.91422 10.1 6.04776 10.1553 6.14621 10.2538C6.24467 10.3522 6.29998 10.4858 6.29998 10.625V12.375ZM8.39998 7.03751C8.39998 7.10713 8.37232 7.1739 8.32309 7.22313C8.27387 7.27236 8.2071 7.30001 8.13748 7.30001H7.26248C7.19286 7.30001 7.12609 7.27236 7.07687 7.22313C7.02764 7.1739 6.99998 7.10713 6.99998 7.03751V5.90002H5.86248C5.79287 5.90002 5.7261 5.87236 5.67687 5.82313C5.62764 5.77391 5.59999 5.70714 5.59999 5.63752V4.76252C5.59999 4.6929 5.62764 4.62613 5.67687 4.57691C5.7261 4.52768 5.79287 4.50002 5.86248 4.50002H6.99998V3.36252C6.99998 3.29291 7.02764 3.22614 7.07687 3.17691C7.12609 3.12768 7.19286 3.10003 7.26248 3.10003H8.13748C8.2071 3.10003 8.27387 3.12768 8.32309 3.17691C8.37232 3.22614 8.39998 3.29291 8.39998 3.36252V4.50002H9.53747C9.60709 4.50002 9.67386 4.52768 9.72309 4.57691C9.77232 4.62613 9.79997 4.6929 9.79997 4.76252V5.63752C9.79997 5.70714 9.77232 5.77391 9.72309 5.82313C9.67386 5.87236 9.60709 5.90002 9.53747 5.90002H8.39998V7.03751ZM11.9 17.975C11.9 18.1142 11.8447 18.2478 11.7462 18.3462C11.6477 18.4447 11.5142 18.5 11.375 18.5H9.62497C9.48574 18.5 9.3522 18.4447 9.25374 18.3462C9.15529 18.2478 9.09998 18.1142 9.09998 17.975V16.225C9.09998 16.0858 9.15529 15.9522 9.25374 15.8538C9.3522 15.7553 9.48574 15.7 9.62497 15.7H11.375C11.5142 15.7 11.6477 15.7553 11.7462 15.8538C11.8447 15.9522 11.9 16.0858 11.9 16.225V17.975ZM11.9 12.375C11.9 12.5142 11.8447 12.6478 11.7462 12.7462C11.6477 12.8447 11.5142 12.9 11.375 12.9H9.62497C9.48574 12.9 9.3522 12.8447 9.25374 12.7462C9.15529 12.6478 9.09998 12.5142 9.09998 12.375V10.625C9.09998 10.4858 9.15529 10.3522 9.25374 10.2538C9.3522 10.1553 9.48574 10.1 9.62497 10.1H11.375C11.5142 10.1 11.6477 10.1553 11.7462 10.2538C11.8447 10.3522 11.9 10.4858 11.9 10.625V12.375Z" fill="white"/>
</svg>
