<svg width="50" height="58" viewBox="0 0 50 58" fill="none" xmlns="http://www.w3.org/2000/svg">
<path d="M44.6429 7.57145H39.2857V1.76787C39.2857 1.02825 38.6861 0.428589 37.9464 0.428589H33.4821C32.7425 0.428589 32.1429 1.02825 32.1429 1.76787V7.57145H17.8571V1.76787C17.8571 1.02825 17.2575 0.428589 16.5179 0.428589H12.0536C11.314 0.428589 10.7143 1.02825 10.7143 1.76787V7.57145H5.35714C2.39844 7.57145 0 9.96988 0 12.9286V52.2143C0 55.173 2.39844 57.5714 5.35714 57.5714H44.6429C47.6016 57.5714 50 55.173 50 52.2143V12.9286C50 9.96988 47.6016 7.57145 44.6429 7.57145ZM43.9732 52.2143H6.02679C5.84919 52.2143 5.67886 52.1438 5.55328 52.0182C5.42769 51.8926 5.35714 51.7223 5.35714 51.5447V18.2857H44.6429V51.5447C44.6429 51.7223 44.5723 51.8926 44.4467 52.0182C44.3211 52.1438 44.1508 52.2143 43.9732 52.2143ZM38.0749 29.8203L22.1922 45.5758C21.6671 46.0967 20.8191 46.0933 20.2981 45.5682L11.9174 37.1197C11.3965 36.5946 11.3999 35.7466 11.925 35.2256L14.4606 32.7104C14.9857 32.1895 15.8337 32.1929 16.3546 32.7181L21.2769 37.6803L33.6733 25.3833C34.1984 24.8624 35.0464 24.8658 35.5674 25.3909L38.0826 27.9264C38.6035 28.4515 38.6 29.2995 38.0749 29.8203Z" fill="white"/>
</svg>
